<?xml version="1.0" standalone="no"?>
<!DOCTYPE svg PUBLIC "-//W3C//DTD SVG 20010904//EN"
 "http://www.w3.org/TR/2001/REC-SVG-20010904/DTD/svg10.dtd">
<svg version="1.0" xmlns="http://www.w3.org/2000/svg"
 width="1024.000000pt" height="1024.000000pt" viewBox="0 0 1024.000000 1024.000000"
 preserveAspectRatio="xMidYMid meet">

<g transform="translate(0.000000,1024.000000) scale(0.100000,-0.100000)"
fill="#000000" stroke="none">

<path d="M4750 8729 c-367 -27 -730 -95 -1065 -198 -480 -147 -1025 -446
-1385 -757 -108 -94 -277 -264 -371 -374 -317 -369 -546 -833 -653 -1321 -95
-433 -77 -962 49 -1410 89 -315 267 -693 468 -993 325 -485 682 -842 1202
-1201 214 -147 404 -254 762 -429 13 -6 23 -20 23 -31 0 -11 12 -40 26 -65 15
-25 63 -117 109 -205 45 -88 104 -198 130 -245 83 -151 465 -896 465 -907 0
-17 37 -26 58 -14 11 6 42 61 70 123 130 291 185 404 204 419 21 17 21 17 -29
84 -28 37 -77 117 -109 178 -33 61 -100 183 -151 272 -50 88 -90 161 -89 162
1 1 80 -9 176 -23 505 -71 1092 -25 1535 121 334 110 706 293 965 474 701 491
1184 1029 1514 1689 273 543 385 1164 311 1727 -64 494 -212 887 -491 1308
-125 188 -180 253 -379 453 -183 184 -287 275 -434 378 -674 473 -1406 729
-2249 786 -173 11 -504 11 -662 -1z m790 -423 c318 -40 581 -99 845 -189 177
-61 462 -198 605 -290 90 -58 219 -157 219 -169 1 -4 -23 -42 -52 -85 -63 -92
-215 -349 -244 -413 -12 -25 -51 -107 -87 -182 l-66 -137 -102 49 c-234 111
-560 191 -1018 247 -185 23 -901 26 -1070 5 -225 -28 -513 -83 -685 -131 -159
-43 -383 -127 -409 -152 -6 -5 -15 -9 -22 -9 -6 0 -54 87 -107 193 -100 201
-235 434 -321 551 l-50 69 49 44 c103 91 392 252 630 351 304 126 675 216
1040 251 61 6 124 13 140 15 70 10 587 -4 705 -18z m2230 -1022 c149 -154 223
-245 333 -413 208 -314 349 -664 402 -995 92 -578 -23 -1200 -322 -1741 -99
-179 -349 -541 -383 -553 -4 -2 -10 401 -13 895 -3 494 -10 954 -16 1023 -5
69 -24 319 -41 555 -17 237 -35 457 -40 490 -5 33 -19 139 -30 235 -11 96 -34
249 -50 340 -16 91 -37 206 -45 255 -9 50 -18 99 -22 110 -8 28 87 -57 227
-201z m-5160 75 c-25 -129 -92 -619 -119 -874 -23 -212 -64 -748 -80 -1040
-20 -348 -33 -1273 -23 -1555 5 -146 6 -273 3 -282 -16 -43 -290 370 -427 642
-197 394 -290 757 -301 1175 -6 230 9 383 63 624 40 178 139 440 232 611 67
124 210 334 311 457 121 147 343 364 358 350 1 -2 -6 -50 -17 -108z m4398
-2577 c10 -33 9 -49 -7 -98 -11 -32 -31 -99 -46 -149 -15 -49 -44 -133 -66
-185 -32 -79 -143 -371 -194 -510 -12 -32 -17 -35 -57 -38 -23 -1 -104 -9
-178 -18 -270 -31 -578 -28 -810 7 -73 11 -260 60 -260 69 1 9 571 355 960
583 91 53 225 133 299 179 141 88 331 198 342 198 3 0 11 -17 17 -38z m-3583
-83 c93 -56 193 -115 220 -132 28 -17 97 -57 155 -90 58 -33 134 -77 170 -97
62 -36 243 -141 362 -211 31 -19 80 -47 110 -64 128 -72 397 -238 398 -245 0
-5 -94 -30 -207 -56 -34 -7 -144 -21 -245 -30 -197 -17 -472 -14 -738 9 l-135
12 -19 40 c-23 48 -132 319 -187 465 -42 111 -119 367 -119 395 0 17 50 104
60 105 2 0 81 -46 175 -101z m3476 -1651 c-16 -117 -32 -233 -36 -258 -5 -48
-11 -54 -100 -114 -344 -231 -858 -409 -1333 -463 -628 -71 -1273 69 -1888
410 -216 120 -204 109 -214 198 -5 41 -20 157 -34 259 -14 101 -24 186 -22
188 2 1 104 -29 227 -68 123 -39 296 -94 383 -121 87 -28 175 -53 194 -56 32
-6 37 -12 78 -99 24 -52 60 -132 79 -178 l36 -83 77 76 c86 86 185 151 229
151 37 0 50 -9 223 -161 148 -129 243 -228 281 -293 l21 -36 92 93 c110 113
386 366 418 384 13 7 32 12 44 13 30 0 127 -70 211 -153 40 -39 74 -69 76 -66
2 2 16 33 32 69 15 36 50 110 78 166 l49 101 412 135 c226 74 412 131 414 126
2 -4 -10 -103 -27 -220z"/>
<path d="M5041 1407 c-84 -43 -94 -200 -15 -236 17 -7 122 -11 324 -11 l298 0
31 26 c37 31 51 75 39 129 -11 47 -32 73 -75 91 -44 19 -566 20 -602 1z"/>
<path d="M27 103 c-25 -4 -27 -8 -27 -54 0 -48 1 -49 30 -49 30 0 30 1 30 55
0 30 -1 54 -2 54 -2 -1 -15 -4 -31 -6z"/>
</g>
</svg>
