<svg width="32" height="32" viewBox="0 0 32 32" fill="none" xmlns="http://www.w3.org/2000/svg">
<path d="M0 6.5C0 4.77609 0.684819 3.12279 1.90381 1.90381C3.12279 0.684819 4.77609 0 6.5 0H9.192C9.58982 0 9.97136 0.158035 10.2527 0.43934C10.534 0.720644 10.692 1.10218 10.692 1.5C10.692 1.89782 10.534 2.27936 10.2527 2.56066C9.97136 2.84196 9.58982 3 9.192 3H6.5C5.57174 3 4.6815 3.36875 4.02513 4.02513C3.36875 4.6815 3 5.57174 3 6.5V9.192C3 9.58982 2.84196 9.97136 2.56066 10.2527C2.27936 10.534 1.89782 10.692 1.5 10.692C1.10218 10.692 0.720644 10.534 0.43934 10.2527C0.158035 9.97136 0 9.58982 0 9.192V6.5ZM21.308 1.5C21.308 1.10218 21.466 0.720644 21.7473 0.43934C22.0286 0.158035 22.4102 0 22.808 0H25.5C27.2239 0 28.8772 0.684819 30.0962 1.90381C31.3152 3.12279 32 4.77609 32 6.5V9.192C32 9.58982 31.842 9.97136 31.5607 10.2527C31.2794 10.534 30.8978 10.692 30.5 10.692C30.1022 10.692 29.7206 10.534 29.4393 10.2527C29.158 9.97136 29 9.58982 29 9.192V6.5C29 5.57174 28.6313 4.6815 27.9749 4.02513C27.3185 3.36875 26.4283 3 25.5 3H22.808C22.4102 3 22.0286 2.84196 21.7473 2.56066C21.466 2.27936 21.308 1.89782 21.308 1.5ZM1.5 21.308C1.89782 21.308 2.27936 21.466 2.56066 21.7473C2.84196 22.0286 3 22.4102 3 22.808V25.5C3 27.432 4.568 29 6.5 29H9.192C9.58982 29 9.97136 29.158 10.2527 29.4393C10.534 29.7206 10.692 30.1022 10.692 30.5C10.692 30.8978 10.534 31.2794 10.2527 31.5607C9.97136 31.842 9.58982 32 9.192 32H6.5C4.77609 32 3.12279 31.3152 1.90381 30.0962C0.684819 28.8772 0 27.2239 0 25.5V22.808C0 22.4102 0.158035 22.0286 0.43934 21.7473C0.720644 21.466 1.10218 21.308 1.5 21.308ZM30.5 21.308C30.8978 21.308 31.2794 21.466 31.5607 21.7473C31.842 22.0286 32 22.4102 32 22.808V25.5C32 27.2239 31.3152 28.8772 30.0962 30.0962C28.8772 31.3152 27.2239 32 25.5 32H22.808C22.4102 32 22.0286 31.842 21.7473 31.5607C21.466 31.2794 21.308 30.8978 21.308 30.5C21.308 30.1022 21.466 29.7206 21.7473 29.4393C22.0286 29.158 22.4102 29 22.808 29H25.5C26.4283 29 27.3185 28.6313 27.9749 27.9749C28.6313 27.3185 29 26.4283 29 25.5V22.808C29 22.4102 29.158 22.0286 29.4393 21.7473C29.7206 21.466 30.1022 21.308 30.5 21.308ZM16 18C16.5304 18 17.0391 17.7893 17.4142 17.4142C17.7893 17.0391 18 16.5304 18 16C18 15.4696 17.7893 14.9609 17.4142 14.5858C17.0391 14.2107 16.5304 14 16 14C15.4696 14 14.9609 14.2107 14.5858 14.5858C14.2107 14.9609 14 15.4696 14 16C14 16.5304 14.2107 17.0391 14.5858 17.4142C14.9609 17.7893 15.4696 18 16 18ZM8 20V14C8 13.4696 8.21071 12.9609 8.58579 12.5858C8.96086 12.2107 9.46957 12 10 12H12L13.406 9.89C13.5887 9.61617 13.8362 9.39166 14.1264 9.23641C14.4167 9.08116 14.7408 8.99995 15.07 9H16.93C17.2592 8.99995 17.5833 9.08116 17.8736 9.23641C18.1638 9.39166 18.4113 9.61617 18.594 9.89L20 12H22C22.5304 12 23.0391 12.2107 23.4142 12.5858C23.7893 12.9609 24 13.4696 24 14V20C24 20.5304 23.7893 21.0391 23.4142 21.4142C23.0391 21.7893 22.5304 22 22 22H10C9.46957 22 8.96086 21.7893 8.58579 21.4142C8.21071 21.0391 8 20.5304 8 20ZM20 16C20 14.9391 19.5786 13.9217 18.8284 13.1716C18.0783 12.4214 17.0609 12 16 12C14.9391 12 13.9217 12.4214 13.1716 13.1716C12.4214 13.9217 12 14.9391 12 16C12 17.0609 12.4214 18.0783 13.1716 18.8284C13.9217 19.5786 14.9391 20 16 20C17.0609 20 18.0783 19.5786 18.8284 18.8284C19.5786 18.0783 20 17.0609 20 16Z" fill="white"/>
</svg>
