<svg xmlns="http://www.w3.org/2000/svg" viewBox="0 0 400 400">
  <!-- Batman's Head -->
  <path fill="#000000" d="M200,0C89.543,0,0,89.543,0,200c0,110.457,89.543,200,200,200s200-89.543,200-200C400,89.543,310.457,0,200,0z M200,382.609c-97.463,0-176.609-79.146-176.609-176.609c0-97.463,79.146-176.609,176.609-176.609S376.609,108.537,376.609,205.001C376.609,303.463,297.463,382.609,200,382.609z"/>
  
  <!-- Message Icon -->
  <g fill="#000000">
    <path d="M207.987,251.835h-16.934v-16.934c0-5.969-4.841-10.811-10.811-10.811s-10.811,4.841-10.811,10.811v16.934h-16.934c-5.969,0-10.811,4.841-10.811,10.811s4.841,10.811,10.811,10.811h16.934v16.934c0,5.969,4.841,10.811,10.811,10.811s10.811-4.841,10.811-10.811v-16.934h16.934c5.969,0,10.811-4.841,10.811-10.811S213.956,251.835,207.987,251.835z"/>
    <path d="M200,0C89.543,0,0,89.543,0,200c0,110.457,89.543,200,200,200s200-89.543,200-200C400,89.543,310.457,0,200,0z M200,382.609c-97.463,0-176.609-79.146-176.609-176.609c0-97.463,79.146-176.609,176.609-176.609S376.609,108.537,376.609,205.001C376.609,303.463,297.463,382.609,200,382.609z"/>
  </g>
  
  <!-- Message Icon Text -->
  <text x="195" y="230" font-family="Arial" font-size="25" fill="#000000">!</text>
</svg>
