<!DOCTYPE svg PUBLIC "-//W3C//DTD SVG 1.1//EN" "http://www.w3.org/Graphics/SVG/1.1/DTD/svg11.dtd">

<!-- Uploaded to: SVG Repo, www.svgrepo.com, Transformed by: SVG Repo Mixer Tools -->
<svg width="800px" height="800px" viewBox="0 0 24 24" fill="none" xmlns="http://www.w3.org/2000/svg" transform="matrix(-1, 0, 0, 1, 0, 0)">

<g id="SVGRepo_bgCarrier" stroke-width="0"/>

<g id="SVGRepo_tracerCarrier" stroke-linecap="round" stroke-linejoin="round"/>

<g id="SVGRepo_iconCarrier"> <path fill-rule="evenodd" clip-rule="evenodd" d="M9.34802 2.71763C11.0814 2.22238 12.9188 2.22238 14.6522 2.71763C17.8592 3.63393 20.3661 6.14079 21.2824 9.34783C21.7776 11.0812 21.7776 12.9186 21.2824 14.652L21.2463 14.7784C20.3524 17.9068 17.907 20.3522 14.7786 21.2461C12.9538 21.7674 11.014 21.7253 9.21355 21.1252L7.57101 20.5776C7.49859 20.5535 7.42079 20.5505 7.34674 20.569L3.74264 21.47C3.40186 21.5552 3.04137 21.4554 2.79299 21.207C2.54461 20.9586 2.44476 20.5981 2.52996 20.2574L3.43098 16.6533C3.4495 16.5792 3.44651 16.5014 3.42237 16.429L2.87486 14.7865C2.27471 12.986 2.23256 11.0462 2.75393 9.22143C3.64777 6.093 6.09319 3.64758 9.22162 2.75374L9.34802 2.71763ZM7.5 13.4999C8.32843 13.4999 9 12.8283 9 11.9999C9 11.1715 8.32843 10.4999 7.5 10.4999C6.67157 10.4999 6 11.1715 6 11.9999C6 12.8283 6.67157 13.4999 7.5 13.4999ZM13.5 11.9999C13.5 12.8283 12.8284 13.4999 12 13.4999C11.1716 13.4999 10.5 12.8283 10.5 11.9999C10.5 11.1715 11.1716 10.4999 12 10.4999C12.8284 10.4999 13.5 11.1715 13.5 11.9999ZM16.5 13.4999C17.3284 13.4999 18 12.8283 18 11.9999C18 11.1715 17.3284 10.4999 16.5 10.4999C15.6716 10.4999 15 11.1715 15 11.9999C15 12.8283 15.6716 13.4999 16.5 13.4999Z" fill="#0a0a0a"/> </g>

</svg>